0
SECTION
2
HEADER
9
$INSUNITS
70
4
0
ENDSEC
0
SECTION
2
TABLES
0
TABLE
2
LTYPE
0
LTYPE
72
65
70
64
2
CONTINUOUS
3
______
73
0
40
0
0
ENDTAB
0
TABLE
2
LAYER
0
ENDTAB
0
ENDSEC
0
SECTION
2
ENTITIES
0
LINE
8
0
10
88.5
20
-159.5
11
88.5
21
-61.5
0
LINE
8
0
10
90.5
20
-59.5
11
125.4528389
21
-59.5
0
LINE
8
0
10
127.4414572
20
-57.7130662
11
127.8085428
21
-54.2869338
0
LINE
8
0
10
129.7971611
20
-52.5
11
145.2776252
21
-52.5
0
LINE
8
0
10
147.2554979
20
-50.796681
11
147.4945021
21
-49.203319
0
LINE
8
0
10
149.4723748
20
-47.5
11
168.9844355
21
-47.5
0
LINE
8
0
10
170.9689913
20
-49.2519306
11
171.2810087
21
-51.7480694
0
LINE
8
0
10
173.2655645
20
-53.5
11
188.9384977
21
-53.5
0
LINE
8
0
10
190.8787674
20
-55.0148678
11
191.2501
21
-56.5
0
LINE
8
0
10
191.2501
20
-56.5
11
208.25
21
-56.5
0
LINE
8
0
10
210.25
20
-58.5
11
210.25
21
-156.5
0
LINE
8
0
10
208.25
20
-158.5
11
190.1298035
21
-158.5
0
LINE
8
0
10
188.6554952
20
-157.8514493
11
187.0945048
21
-156.1485507
0
LINE
8
0
10
185.6201965
20
-155.5
11
169.2655645
21
-155.5
0
LINE
8
0
10
167.2810087
20
-153.7480694
11
166.9689913
21
-151.2519306
0
LINE
8
0
10
164.9844355
20
-149.5
11
153.4723748
21
-149.5
0
LINE
8
0
10
151.4945021
20
-151.203319
11
151.2554979
21
-152.796681
0
LINE
8
0
10
149.2776252
20
-154.5
11
133.7971611
21
-154.5
0
LINE
8
0
10
131.8085428
20
-156.2869338
11
131.4414572
21
-159.7130662
0
LINE
8
0
10
90.5
20
-161.5
11
129.4528389
21
-161.5
0
ARC
8
0
10
90.5
20
-61.5
40
2
50
90
51
180
0
ARC
8
0
10
125.4528389
20
-57.5
40
2
50
270
51
353.8844981
0
ARC
8
0
10
129.7971611
20
-54.5
40
2
50
90
51
173.8844981
0
ARC
8
0
10
145.2776252
20
-50.5
40
2
50
270
51
351.4692321
0
ARC
8
0
10
149.4723748
20
-49.5
40
2
50
90
51
171.4692321
0
ARC
8
0
10
168.9844355
20
-49.5
40
2
50
7.1250142
51
90
0
ARC
8
0
10
173.2655645
20
-51.5
40
2
50
187.1250142
51
270
0
ARC
8
0
10
188.9384977
20
-55.5
40
2
50
14.038043
51
90
0
ARC
8
0
10
208.25
20
-58.5
40
2
50
0
51
90
0
ARC
8
0
10
208.25
20
-156.5
40
2
50
270
51
0
0
ARC
8
0
10
190.1298035
20
-156.5
40
2
50
222.5104474
51
270
0
ARC
8
0
10
185.6201965
20
-157.5
40
2
50
42.5104474
51
90
0
ARC
8
0
10
169.2655645
20
-153.5
40
2
50
187.1250142
51
270
0
ARC
8
0
10
164.9844355
20
-151.5
40
2
50
7.1250142
51
90
0
ARC
8
0
10
153.4723748
20
-151.5
40
2
50
90
51
171.4692321
0
ARC
8
0
10
149.2776252
20
-152.5
40
2
50
270
51
351.4692321
0
ARC
8
0
10
133.7971611
20
-156.5
40
2
50
90
51
173.8844981
0
ARC
8
0
10
129.4528389
20
-159.5
40
2
50
270
51
353.8844981
0
ARC
8
0
10
90.5
20
-159.5
40
2
50
180
51
270
0
ENDSEC
0
EOF