0
SECTION
2
HEADER
9
$INSUNITS
70
4
0
ENDSEC
0
SECTION
2
TABLES
0
TABLE
2
LTYPE
0
LTYPE
72
65
70
64
2
CONTINUOUS
3
______
73
0
40
0
0
ENDTAB
0
TABLE
2
LAYER
0
ENDTAB
0
ENDSEC
0
SECTION
2
ENTITIES
0
LINE
8
0
10
369
20
-159.5
11
369
21
-61.5
0
LINE
8
0
10
367
20
-59.5
11
332.0471611
21
-59.5
0
LINE
8
0
10
330.0585428
20
-57.7130662
11
329.6914572
21
-54.2869338
0
LINE
8
0
10
327.7028389
20
-52.5
11
312.2223748
21
-52.5
0
LINE
8
0
10
310.2445021
20
-50.796681
11
310.0054979
21
-49.203319
0
LINE
8
0
10
308.0276252
20
-47.5
11
288.5155645
21
-47.5
0
LINE
8
0
10
286.5310087
20
-49.2519306
11
286.2189913
21
-51.7480694
0
LINE
8
0
10
284.2344355
20
-53.5
11
268.5615023
21
-53.5
0
LINE
8
0
10
266.6212326
20
-55.0148678
11
266.2499
21
-56.5
0
LINE
8
0
10
266.2499
20
-56.5
11
249.25
21
-56.5
0
LINE
8
0
10
247.25
20
-58.5
11
247.25
21
-156.5
0
LINE
8
0
10
249.25
20
-158.5
11
267.3701965
21
-158.5
0
LINE
8
0
10
268.8445048
20
-157.8514493
11
270.4054952
21
-156.1485507
0
LINE
8
0
10
271.8798035
20
-155.5
11
288.2344355
21
-155.5
0
LINE
8
0
10
290.2189913
20
-153.7480694
11
290.5310087
21
-151.2519306
0
LINE
8
0
10
292.5155645
20
-149.5
11
304.0276252
21
-149.5
0
LINE
8
0
10
306.0054979
20
-151.203319
11
306.2445021
21
-152.796681
0
LINE
8
0
10
308.2223748
20
-154.5
11
323.7028389
21
-154.5
0
LINE
8
0
10
325.6914572
20
-156.2869338
11
326.0585428
21
-159.7130662
0
LINE
8
0
10
328.0471611
20
-161.5
11
367
21
-161.5
0
ARC
8
0
10
367
20
-61.5
40
2
50
0
51
90
0
ARC
8
0
10
332.0471611
20
-57.5
40
2
50
186.1155019
51
270
0
ARC
8
0
10
327.7028389
20
-54.5
40
2
50
6.1155019
51
90
0
ARC
8
0
10
312.2223748
20
-50.5
40
2
50
188.5307679
51
270
0
ARC
8
0
10
308.0276252
20
-49.5
40
2
50
8.5307679
51
90
0
ARC
8
0
10
288.5155645
20
-49.5
40
2
50
90
51
172.8749858
0
ARC
8
0
10
284.2344355
20
-51.5
40
2
50
270
51
352.8749858
0
ARC
8
0
10
268.5615023
20
-55.5
40
2
50
90
51
165.961957
0
ARC
8
0
10
249.25
20
-58.5
40
2
50
90
51
180
0
ARC
8
0
10
249.25
20
-156.5
40
2
50
180
51
270
0
ARC
8
0
10
267.3701965
20
-156.5
40
2
50
270
51
317.4895526
0
ARC
8
0
10
271.8798035
20
-157.5
40
2
50
90
51
137.4895526
0
ARC
8
0
10
288.2344355
20
-153.5
40
2
50
270
51
352.8749858
0
ARC
8
0
10
292.5155645
20
-151.5
40
2
50
90
51
172.8749858
0
ARC
8
0
10
304.0276252
20
-151.5
40
2
50
8.5307679
51
90
0
ARC
8
0
10
308.2223748
20
-152.5
40
2
50
188.5307679
51
270
0
ARC
8
0
10
323.7028389
20
-156.5
40
2
50
6.1155019
51
90
0
ARC
8
0
10
328.0471611
20
-159.5
40
2
50
186.1155019
51
270
0
ARC
8
0
10
367
20
-159.5
40
2
50
270
51
0
0
ENDSEC
0
EOF