0
SECTION
2
HEADER
9
$INSUNITS
70
4
0
ENDSEC
0
SECTION
2
TABLES
0
TABLE
2
LTYPE
0
LTYPE
72
65
70
64
2
CONTINUOUS
3
______
73
0
40
0
0
ENDTAB
0
TABLE
2
LAYER
0
ENDTAB
0
ENDSEC
0
SECTION
2
ENTITIES
0
LINE
8
0
10
93
20
-157
11
107
21
-157
0
LINE
8
0
10
107
20
-157
11
107
21
-143
0
LINE
8
0
10
107
20
-143
11
93
21
-143
0
LINE
8
0
10
93
20
-143
11
93
21
-157
0
LINE
8
0
10
93
20
-137.25
11
107
21
-137.25
0
LINE
8
0
10
107
20
-137.25
11
107
21
-123.25
0
LINE
8
0
10
107
20
-123.25
11
93
21
-123.25
0
LINE
8
0
10
93
20
-123.25
11
93
21
-137.25
0
LINE
8
0
10
93
20
-117.5
11
107
21
-117.5
0
LINE
8
0
10
107
20
-117.5
11
107
21
-103.5
0
LINE
8
0
10
107
20
-103.5
11
93
21
-103.5
0
LINE
8
0
10
93
20
-103.5
11
93
21
-117.5
0
LINE
8
0
10
93
20
-97.75
11
107
21
-97.75
0
LINE
8
0
10
107
20
-97.75
11
107
21
-83.75
0
LINE
8
0
10
107
20
-83.75
11
93
21
-83.75
0
LINE
8
0
10
93
20
-83.75
11
93
21
-97.75
0
LINE
8
0
10
93
20
-78
11
107
21
-78
0
LINE
8
0
10
107
20
-78
11
107
21
-64
0
LINE
8
0
10
107
20
-64
11
93
21
-64
0
LINE
8
0
10
93
20
-64
11
93
21
-78
0
LINE
8
0
10
112.75
20
-157
11
126.75
21
-157
0
LINE
8
0
10
126.75
20
-157
11
126.75
21
-143
0
LINE
8
0
10
126.75
20
-143
11
112.75
21
-143
0
LINE
8
0
10
112.75
20
-143
11
112.75
21
-157
0
LINE
8
0
10
112.75
20
-137.25
11
126.75
21
-137.25
0
LINE
8
0
10
126.75
20
-137.25
11
126.75
21
-123.25
0
LINE
8
0
10
126.75
20
-123.25
11
112.75
21
-123.25
0
LINE
8
0
10
112.75
20
-123.25
11
112.75
21
-137.25
0
LINE
8
0
10
112.75
20
-117.5
11
126.75
21
-117.5
0
LINE
8
0
10
126.75
20
-117.5
11
126.75
21
-103.5
0
LINE
8
0
10
126.75
20
-103.5
11
112.75
21
-103.5
0
LINE
8
0
10
112.75
20
-103.5
11
112.75
21
-117.5
0
LINE
8
0
10
112.75
20
-97.75
11
126.75
21
-97.75
0
LINE
8
0
10
126.75
20
-97.75
11
126.75
21
-83.75
0
LINE
8
0
10
126.75
20
-83.75
11
112.75
21
-83.75
0
LINE
8
0
10
112.75
20
-83.75
11
112.75
21
-97.75
0
LINE
8
0
10
112.75
20
-78
11
126.75
21
-78
0
LINE
8
0
10
126.75
20
-78
11
126.75
21
-64
0
LINE
8
0
10
126.75
20
-64
11
112.75
21
-64
0
LINE
8
0
10
112.75
20
-64
11
112.75
21
-78
0
LINE
8
0
10
132.5
20
-150
11
146.5
21
-150
0
LINE
8
0
10
146.5
20
-150
11
146.5
21
-136
0
LINE
8
0
10
146.5
20
-136
11
132.5
21
-136
0
LINE
8
0
10
132.5
20
-136
11
132.5
21
-150
0
LINE
8
0
10
132.5
20
-130.25
11
146.5
21
-130.25
0
LINE
8
0
10
146.5
20
-130.25
11
146.5
21
-116.25
0
LINE
8
0
10
146.5
20
-116.25
11
132.5
21
-116.25
0
LINE
8
0
10
132.5
20
-116.25
11
132.5
21
-130.25
0
LINE
8
0
10
132.5
20
-110.5
11
146.5
21
-110.5
0
LINE
8
0
10
146.5
20
-110.5
11
146.5
21
-96.5
0
LINE
8
0
10
146.5
20
-96.5
11
132.5
21
-96.5
0
LINE
8
0
10
132.5
20
-96.5
11
132.5
21
-110.5
0
LINE
8
0
10
132.5
20
-90.75
11
146.5
21
-90.75
0
LINE
8
0
10
146.5
20
-90.75
11
146.5
21
-76.75
0
LINE
8
0
10
146.5
20
-76.75
11
132.5
21
-76.75
0
LINE
8
0
10
132.5
20
-76.75
11
132.5
21
-90.75
0
LINE
8
0
10
132.5
20
-71
11
146.5
21
-71
0
LINE
8
0
10
146.5
20
-71
11
146.5
21
-57
0
LINE
8
0
10
146.5
20
-57
11
132.5
21
-57
0
LINE
8
0
10
132.5
20
-57
11
132.5
21
-71
0
LINE
8
0
10
152.25
20
-145
11
166.25
21
-145
0
LINE
8
0
10
166.25
20
-145
11
166.25
21
-131
0
LINE
8
0
10
166.25
20
-131
11
152.25
21
-131
0
LINE
8
0
10
152.25
20
-131
11
152.25
21
-145
0
LINE
8
0
10
152.25
20
-125.25
11
166.25
21
-125.25
0
LINE
8
0
10
166.25
20
-125.25
11
166.25
21
-111.25
0
LINE
8
0
10
166.25
20
-111.25
11
152.25
21
-111.25
0
LINE
8
0
10
152.25
20
-111.25
11
152.25
21
-125.25
0
LINE
8
0
10
152.25
20
-105.5
11
166.25
21
-105.5
0
LINE
8
0
10
166.25
20
-105.5
11
166.25
21
-91.5
0
LINE
8
0
10
166.25
20
-91.5
11
152.25
21
-91.5
0
LINE
8
0
10
152.25
20
-91.5
11
152.25
21
-105.5
0
LINE
8
0
10
152.25
20
-85.75
11
166.25
21
-85.75
0
LINE
8
0
10
166.25
20
-85.75
11
166.25
21
-71.75
0
LINE
8
0
10
166.25
20
-71.75
11
152.25
21
-71.75
0
LINE
8
0
10
152.25
20
-71.75
11
152.25
21
-85.75
0
LINE
8
0
10
152.25
20
-66
11
166.25
21
-66
0
LINE
8
0
10
166.25
20
-66
11
166.25
21
-52
0
LINE
8
0
10
166.25
20
-52
11
152.25
21
-52
0
LINE
8
0
10
152.25
20
-52
11
152.25
21
-66
0
LINE
8
0
10
172
20
-151
11
186
21
-151
0
LINE
8
0
10
186
20
-151
11
186
21
-137
0
LINE
8
0
10
186
20
-137
11
172
21
-137
0
LINE
8
0
10
172
20
-137
11
172
21
-151
0
LINE
8
0
10
172
20
-131.25
11
186
21
-131.25
0
LINE
8
0
10
186
20
-131.25
11
186
21
-117.25
0
LINE
8
0
10
186
20
-117.25
11
172
21
-117.25
0
LINE
8
0
10
172
20
-117.25
11
172
21
-131.25
0
LINE
8
0
10
172
20
-111.5
11
186
21
-111.5
0
LINE
8
0
10
186
20
-111.5
11
186
21
-97.5
0
LINE
8
0
10
186
20
-97.5
11
172
21
-97.5
0
LINE
8
0
10
172
20
-97.5
11
172
21
-111.5
0
LINE
8
0
10
172
20
-91.75
11
186
21
-91.75
0
LINE
8
0
10
186
20
-91.75
11
186
21
-77.75
0
LINE
8
0
10
186
20
-77.75
11
172
21
-77.75
0
LINE
8
0
10
172
20
-77.75
11
172
21
-91.75
0
LINE
8
0
10
172
20
-72
11
186
21
-72
0
LINE
8
0
10
186
20
-72
11
186
21
-58
0
LINE
8
0
10
186
20
-58
11
172
21
-58
0
LINE
8
0
10
172
20
-58
11
172
21
-72
0
LINE
8
0
10
191.75
20
-154
11
205.75
21
-154
0
LINE
8
0
10
205.75
20
-154
11
205.75
21
-140
0
LINE
8
0
10
205.75
20
-140
11
191.75
21
-140
0
LINE
8
0
10
191.75
20
-140
11
191.75
21
-154
0
LINE
8
0
10
191.75
20
-134.25
11
205.75
21
-134.25
0
LINE
8
0
10
205.75
20
-134.25
11
205.75
21
-120.25
0
LINE
8
0
10
205.75
20
-120.25
11
191.75
21
-120.25
0
LINE
8
0
10
191.75
20
-120.25
11
191.75
21
-134.25
0
LINE
8
0
10
191.75
20
-114.5
11
205.75
21
-114.5
0
LINE
8
0
10
205.75
20
-114.5
11
205.75
21
-100.5
0
LINE
8
0
10
205.75
20
-100.5
11
191.75
21
-100.5
0
LINE
8
0
10
191.75
20
-100.5
11
191.75
21
-114.5
0
LINE
8
0
10
191.75
20
-94.75
11
205.75
21
-94.75
0
LINE
8
0
10
205.75
20
-94.75
11
205.75
21
-80.75
0
LINE
8
0
10
205.75
20
-80.75
11
191.75
21
-80.75
0
LINE
8
0
10
191.75
20
-80.75
11
191.75
21
-94.75
0
LINE
8
0
10
191.75
20
-75
11
205.75
21
-75
0
LINE
8
0
10
205.75
20
-75
11
205.75
21
-61
0
LINE
8
0
10
205.75
20
-61
11
191.75
21
-61
0
LINE
8
0
10
191.75
20
-61
11
191.75
21
-75
0
LINE
8
0
10
350.5
20
-157
11
364.5
21
-157
0
LINE
8
0
10
364.5
20
-157
11
364.5
21
-143
0
LINE
8
0
10
364.5
20
-143
11
350.5
21
-143
0
LINE
8
0
10
350.5
20
-143
11
350.5
21
-157
0
LINE
8
0
10
350.5
20
-137.25
11
364.5
21
-137.25
0
LINE
8
0
10
364.5
20
-137.25
11
364.5
21
-123.25
0
LINE
8
0
10
364.5
20
-123.25
11
350.5
21
-123.25
0
LINE
8
0
10
350.5
20
-123.25
11
350.5
21
-137.25
0
LINE
8
0
10
350.5
20
-117.5
11
364.5
21
-117.5
0
LINE
8
0
10
364.5
20
-117.5
11
364.5
21
-103.5
0
LINE
8
0
10
364.5
20
-103.5
11
350.5
21
-103.5
0
LINE
8
0
10
350.5
20
-103.5
11
350.5
21
-117.5
0
LINE
8
0
10
350.5
20
-97.75
11
364.5
21
-97.75
0
LINE
8
0
10
364.5
20
-97.75
11
364.5
21
-83.75
0
LINE
8
0
10
364.5
20
-83.75
11
350.5
21
-83.75
0
LINE
8
0
10
350.5
20
-83.75
11
350.5
21
-97.75
0
LINE
8
0
10
350.5
20
-78
11
364.5
21
-78
0
LINE
8
0
10
364.5
20
-78
11
364.5
21
-64
0
LINE
8
0
10
364.5
20
-64
11
350.5
21
-64
0
LINE
8
0
10
350.5
20
-64
11
350.5
21
-78
0
LINE
8
0
10
330.75
20
-157
11
344.75
21
-157
0
LINE
8
0
10
344.75
20
-157
11
344.75
21
-143
0
LINE
8
0
10
344.75
20
-143
11
330.75
21
-143
0
LINE
8
0
10
330.75
20
-143
11
330.75
21
-157
0
LINE
8
0
10
330.75
20
-137.25
11
344.75
21
-137.25
0
LINE
8
0
10
344.75
20
-137.25
11
344.75
21
-123.25
0
LINE
8
0
10
344.75
20
-123.25
11
330.75
21
-123.25
0
LINE
8
0
10
330.75
20
-123.25
11
330.75
21
-137.25
0
LINE
8
0
10
330.75
20
-117.5
11
344.75
21
-117.5
0
LINE
8
0
10
344.75
20
-117.5
11
344.75
21
-103.5
0
LINE
8
0
10
344.75
20
-103.5
11
330.75
21
-103.5
0
LINE
8
0
10
330.75
20
-103.5
11
330.75
21
-117.5
0
LINE
8
0
10
330.75
20
-97.75
11
344.75
21
-97.75
0
LINE
8
0
10
344.75
20
-97.75
11
344.75
21
-83.75
0
LINE
8
0
10
344.75
20
-83.75
11
330.75
21
-83.75
0
LINE
8
0
10
330.75
20
-83.75
11
330.75
21
-97.75
0
LINE
8
0
10
330.75
20
-78
11
344.75
21
-78
0
LINE
8
0
10
344.75
20
-78
11
344.75
21
-64
0
LINE
8
0
10
344.75
20
-64
11
330.75
21
-64
0
LINE
8
0
10
330.75
20
-64
11
330.75
21
-78
0
LINE
8
0
10
311
20
-150
11
325
21
-150
0
LINE
8
0
10
325
20
-150
11
325
21
-136
0
LINE
8
0
10
325
20
-136
11
311
21
-136
0
LINE
8
0
10
311
20
-136
11
311
21
-150
0
LINE
8
0
10
311
20
-130.25
11
325
21
-130.25
0
LINE
8
0
10
325
20
-130.25
11
325
21
-116.25
0
LINE
8
0
10
325
20
-116.25
11
311
21
-116.25
0
LINE
8
0
10
311
20
-116.25
11
311
21
-130.25
0
LINE
8
0
10
311
20
-110.5
11
325
21
-110.5
0
LINE
8
0
10
325
20
-110.5
11
325
21
-96.5
0
LINE
8
0
10
325
20
-96.5
11
311
21
-96.5
0
LINE
8
0
10
311
20
-96.5
11
311
21
-110.5
0
LINE
8
0
10
311
20
-90.75
11
325
21
-90.75
0
LINE
8
0
10
325
20
-90.75
11
325
21
-76.75
0
LINE
8
0
10
325
20
-76.75
11
311
21
-76.75
0
LINE
8
0
10
311
20
-76.75
11
311
21
-90.75
0
LINE
8
0
10
311
20
-71
11
325
21
-71
0
LINE
8
0
10
325
20
-71
11
325
21
-57
0
LINE
8
0
10
325
20
-57
11
311
21
-57
0
LINE
8
0
10
311
20
-57
11
311
21
-71
0
LINE
8
0
10
291.25
20
-145
11
305.25
21
-145
0
LINE
8
0
10
305.25
20
-145
11
305.25
21
-131
0
LINE
8
0
10
305.25
20
-131
11
291.25
21
-131
0
LINE
8
0
10
291.25
20
-131
11
291.25
21
-145
0
LINE
8
0
10
291.25
20
-125.25
11
305.25
21
-125.25
0
LINE
8
0
10
305.25
20
-125.25
11
305.25
21
-111.25
0
LINE
8
0
10
305.25
20
-111.25
11
291.25
21
-111.25
0
LINE
8
0
10
291.25
20
-111.25
11
291.25
21
-125.25
0
LINE
8
0
10
291.25
20
-105.5
11
305.25
21
-105.5
0
LINE
8
0
10
305.25
20
-105.5
11
305.25
21
-91.5
0
LINE
8
0
10
305.25
20
-91.5
11
291.25
21
-91.5
0
LINE
8
0
10
291.25
20
-91.5
11
291.25
21
-105.5
0
LINE
8
0
10
291.25
20
-85.75
11
305.25
21
-85.75
0
LINE
8
0
10
305.25
20
-85.75
11
305.25
21
-71.75
0
LINE
8
0
10
305.25
20
-71.75
11
291.25
21
-71.75
0
LINE
8
0
10
291.25
20
-71.75
11
291.25
21
-85.75
0
LINE
8
0
10
291.25
20
-66
11
305.25
21
-66
0
LINE
8
0
10
305.25
20
-66
11
305.25
21
-52
0
LINE
8
0
10
305.25
20
-52
11
291.25
21
-52
0
LINE
8
0
10
291.25
20
-52
11
291.25
21
-66
0
LINE
8
0
10
271.5
20
-151
11
285.5
21
-151
0
LINE
8
0
10
285.5
20
-151
11
285.5
21
-137
0
LINE
8
0
10
285.5
20
-137
11
271.5
21
-137
0
LINE
8
0
10
271.5
20
-137
11
271.5
21
-151
0
LINE
8
0
10
271.5
20
-131.25
11
285.5
21
-131.25
0
LINE
8
0
10
285.5
20
-131.25
11
285.5
21
-117.25
0
LINE
8
0
10
285.5
20
-117.25
11
271.5
21
-117.25
0
LINE
8
0
10
271.5
20
-117.25
11
271.5
21
-131.25
0
LINE
8
0
10
271.5
20
-111.5
11
285.5
21
-111.5
0
LINE
8
0
10
285.5
20
-111.5
11
285.5
21
-97.5
0
LINE
8
0
10
285.5
20
-97.5
11
271.5
21
-97.5
0
LINE
8
0
10
271.5
20
-97.5
11
271.5
21
-111.5
0
LINE
8
0
10
271.5
20
-91.75
11
285.5
21
-91.75
0
LINE
8
0
10
285.5
20
-91.75
11
285.5
21
-77.75
0
LINE
8
0
10
285.5
20
-77.75
11
271.5
21
-77.75
0
LINE
8
0
10
271.5
20
-77.75
11
271.5
21
-91.75
0
LINE
8
0
10
271.5
20
-72
11
285.5
21
-72
0
LINE
8
0
10
285.5
20
-72
11
285.5
21
-58
0
LINE
8
0
10
285.5
20
-58
11
271.5
21
-58
0
LINE
8
0
10
271.5
20
-58
11
271.5
21
-72
0
LINE
8
0
10
251.75
20
-154
11
265.75
21
-154
0
LINE
8
0
10
265.75
20
-154
11
265.75
21
-140
0
LINE
8
0
10
265.75
20
-140
11
251.75
21
-140
0
LINE
8
0
10
251.75
20
-140
11
251.75
21
-154
0
LINE
8
0
10
251.75
20
-134.25
11
265.75
21
-134.25
0
LINE
8
0
10
265.75
20
-134.25
11
265.75
21
-120.25
0
LINE
8
0
10
265.75
20
-120.25
11
251.75
21
-120.25
0
LINE
8
0
10
251.75
20
-120.25
11
251.75
21
-134.25
0
LINE
8
0
10
251.75
20
-114.5
11
265.75
21
-114.5
0
LINE
8
0
10
265.75
20
-114.5
11
265.75
21
-100.5
0
LINE
8
0
10
265.75
20
-100.5
11
251.75
21
-100.5
0
LINE
8
0
10
251.75
20
-100.5
11
251.75
21
-114.5
0
LINE
8
0
10
251.75
20
-94.75
11
265.75
21
-94.75
0
LINE
8
0
10
265.75
20
-94.75
11
265.75
21
-80.75
0
LINE
8
0
10
265.75
20
-80.75
11
251.75
21
-80.75
0
LINE
8
0
10
251.75
20
-80.75
11
251.75
21
-94.75
0
LINE
8
0
10
251.75
20
-75
11
265.75
21
-75
0
LINE
8
0
10
265.75
20
-75
11
265.75
21
-61
0
LINE
8
0
10
265.75
20
-61
11
251.75
21
-61
0
LINE
8
0
10
251.75
20
-61
11
251.75
21
-75
0
ENDSEC
0
EOF